<svg xmlns="http://www.w3.org/2000/svg" viewBox="0 0 449.179 449.179"><path d="M375.958 415.456v-80.442c0-7.185-5.529-13.131-12.694-13.67-77.293-5.82-140.109-64.335-152.546-139.623-.488-2.956.349-5.976 2.286-8.262s4.783-3.614 7.778-3.614h50.756L163.176 22.199a13.694 13.694 0 00-3.628 3.405l-101.6 138.431a3.651 3.651 0 002.942 5.81h46.829c5.289 0 9.682 4.031 10.149 9.3 5.694 64.144 33.408 123.698 79.493 169.783 46 46 105.42 73.695 169.429 79.461a13.727 13.727 0 004.885-2.982 13.735 13.735 0 004.283-9.951z" fill="transparent"/><path d="M170.611 20c4.37 0 8.478 2.081 11.064 5.604l101.6 138.431a3.651 3.651 0 01-2.942 5.81h-43.55c-2.996 0-5.842 1.329-7.778 3.614s-2.774 5.306-2.286 8.262c12.437 75.288 75.252 133.804 152.546 139.623 7.165.539 12.694 6.485 12.694 13.67v80.443a13.73 13.73 0 01-4.283 9.95 13.73 13.73 0 01-10.156 3.756c-68.084-3.495-131.598-31.674-180.159-80.235-46.085-46.085-73.798-105.638-79.493-169.783a10.184 10.184 0 00-10.149-9.3H60.89a3.649 3.649 0 01-2.942-5.81l101.6-138.431A13.72 13.72 0 01170.611 20m0-20c-10.696 0-20.859 5.148-27.187 13.77l-101.6 138.431c-5.304 7.227-6.082 16.683-2.032 24.68 4.049 7.995 12.133 12.963 21.097 12.963h37.984c3.707 31.121 12.261 61.164 25.475 89.433 14.517 31.054 34.323 59.246 58.869 83.792 25.884 25.884 55.75 46.457 88.77 61.148 32.966 14.667 68.127 23.051 104.505 24.919a34.28 34.28 0 001.729.044 33.59 33.59 0 0023.22-9.268c6.682-6.343 10.515-15.257 10.515-24.456v-80.443a33.603 33.603 0 00-9.007-22.94 33.632 33.632 0 00-22.185-10.674c-64.079-4.825-116.837-50.033-131.978-111.556h31.545c8.963 0 17.048-4.967 21.098-12.964 4.05-7.995 3.272-17.452-2.031-24.678L197.798 13.77C191.47 5.148 181.306 0 170.611 0z" fill="#ffc9c9"/></svg>